#!OML:ASF I:\Actors\actors\Patient Classification 1\Patient 1\Session 1\Subject1.ASF
:FULLY-SPECIFIED
:DEGREES
228
root 0.112283 17.463 8.3192 8.66354 -1.00512 -10.0944
lowerback 0.389626 3.0398 4.07729
upperback -8.17436 4.42168 1.46227
thorax -8.63507 1.9515 -1.06781
lowerneck -13.3637 -6.81525 -4.0134
upperneck 26.43 -11.1302 8.19964
head 11.5301 -4.48699 2.10027
rclavicle 3.926e-014 6.36111e-014
rhumerus -22.49 50.7379 -106.226
rradius 101.153
rwrist -20.619
rhand -19.4981 -72.395
rfingers 7.12502
rthumb 6.82432 102.265
lclavicle 3.926e-014 6.36111e-014
lhumerus -14.7595 -62.083 80.0966
lradius 102.219
lwrist 52.4433
lhand -42.5631 -1.96433
lfingers 7.12502
lthumb -15.4376 27.4392
rfemur -4.38499 24.3574 24.1553
rtibia 3.62257
rfoot -12.8397 -24.5619
rtoes 1.1153
lfemur 4.89653 -43.2245 -9.77184
ltibia -3.90451
lfoot -26.4469 53.6298
ltoes 16.6216
229
root 0.13163 17.4532 8.31707 8.84018 -0.84261 -10.3419
lowerback 0.401475 2.95248 4.44899
upperback -8.22756 4.33271 1.54533
thorax -8.68827 1.88228 -1.18112
lowerneck -13.4303 -6.78619 -4.04598
upperneck 26.3984 -11.0628 8.15652
head 11.5249 -4.46405 2.09772
rclavicle 1.75924e-014 -2.78299e-014
rhumerus -22.3345 50.2755 -105.292
rradius 101.429
rwrist -20.6498
rhand -19.1548 -71.6266
rfingers 7.12502
rthumb 7.15572 101.486
lclavicle 1.75924e-014 -2.78299e-014
lhumerus -14.6654 -62.0809 81.4269
lradius 101.736
lwrist 51.9785
lhand -43.5247 -1.90682
lfingers 7.12502
lthumb -16.3636 27.4229
rfemur -4.71488 23.8554 24.2754
rtibia 3.77952
rfoot -12.6412 -24.28
rtoes 0.594491
lfemur 4.57219 -43.2213 -9.34594
ltibia -3.87723
lfoot -26.3251 53.5648
ltoes 16.5307
230
root 0.141064 17.4553 8.3283 8.48446 -0.0378024 -10.7137
lowerback 0.670271 2.64713 4.92056
upperback -8.07946 3.97033 1.71125
thorax -8.68692 1.67755 -1.25168
lowerneck -13.5851 -6.75835 -4.10016
upperneck 26.4171 -11.011 8.16537
head 11.5633 -4.43919 2.11291
rclavicle -5.96354e-014 -4.92986e-014
rhumerus -22.0185 49.7093 -104.062
rradius 101.673
rwrist -20.8155
rhand -18.7376 -70.4194
rfingers 7.12502
rthumb 7.55839 100.264
lclavicle -5.96354e-014 -4.92986e-014
lhumerus -14.4973 -61.9152 82.7742
lradius 100.988
lwrist 50.8939
lhand -43.8208 -2.31825
lfingers 7.12502
lthumb -16.6487 26.9877
rfemur -3.89234 23.9218 25.0781
rtibia 3.40288
rfoot -12.7273 -25.2106
rtoes 0.356027
lfemur 4.78804 -42.9427 -8.94536
ltibia -4.04557
lfoot -24.6971 52.912
ltoes 15.1093
231
root 0.146584 17.4597 8.33604 8.41415 0.32692 -10.6419
lowerback 0.761351 2.44897 4.85536
upperback -8.02628 3.70539 1.73042
thorax -8.70056 1.55264 -1.17943
lowerneck -13.6999 -6.66302 -4.22142
upperneck 26.4375 -10.8869 8.31601
head 11.6028 -4.37273 2.204
rclavicle -1.5704e-014 -1.74931e-014
rhumerus -21.6628 49.199 -102.727
rradius 101.86
rwrist -21.3306
rhand -18.1601 -68.7088
rfingers 7.12502
rthumb 8.11578 98.5329
lclavicle -1.5704e-014 -1.74931e-014
lhumerus -14.3412 -61.6844 84.0356
lradius 100.245
lwrist 49.6139
lhand -43.8312 -2.65712
lfingers 7.12502
lthumb -16.6587 26.648
rfemur -3.681 24.0274 25.1061
rtibia 3.3104
rfoot -12.749 -25.8023
rtoes -0.194552
lfemur 4.75442 -42.9063 -8.95701
ltibia -4.15458
lfoot -23.7218 52.6888
ltoes 14.303
232
root 0.146895 17.4664 8.34579 8.60207 0.572678 -10.1421
lowerback 0.57183 2.27242 4.21218
upperback -8.04918 3.41797 1.67771
thorax -8.65504 1.45672 -0.849656
lowerneck -13.6479 -6.59521 -4.33751
upperneck 26.2961 -10.7663 8.38978
head 11.5401 -4.32746 2.26943
rclavicle 8.24956e-015 4.77083e-014
rhumerus -21.4025 48.3848 -101.445
rradius 101.914
rwrist -21.4995
rhand -17.1075 -66.6769
rfingers 7.12502
rthumb 9.13163 96.4592
lclavicle 8.24956e-015 4.77083e-014
lhumerus -14.2079 -61.3882 85.3985
lradius 99.5877
lwrist 48.7081
lhand -43.4997 -2.78743
lfingers 7.12502
lthumb -16.3395 26.5442
rfemur -3.90074 24.327 24.4598
rtibia 3.38846
rfoot -12.9126 -26.4229
rtoes -0.233164
lfemur 4.32656 -43.0731 -9.20287
ltibia -4.18022
lfoot -23.0707 52.6484
ltoes 13.8687
233
root 0.149571 17.469 8.35432 8.71733 1.01625 -9.9366
lowerback 0.448873 2.03878 3.92908
upperback -8.03462 3.08538 1.73939
thorax -8.59585 1.31764 -0.597895
lowerneck -13.6272 -6.54656 -4.34465
upperneck 26.1383 -10.6357 8.24988
head 11.4553 -4.29184 2.23856
rclavicle 1.73937e-014 -3.73715e-014
rhumerus -21.1575 47.3693 -100.254
rradius 101.867
rwrist -21.1099
rhand -15.9934 -65.1513
rfingers 7.12502
rthumb 10.2065 94.8837
lclavicle 1.73937e-014 -3.73715e-014
lhumerus -14.0084 -60.7935 86.8446
lradius 98.9008
lwrist 47.9898
lhand -42.649 -2.58149
lfingers 7.12502
lthumb -15.5203 26.8156
rfemur -3.98107 24.4745 24.2152
rtibia 3.42775
rfoot -13.1935 -27.0334
rtoes 0.215693
lfemur 3.89094 -43.0685 -9.06529
ltibia -4.23487
lfoot -22.1411 52.3617
ltoes 13.0765
234
root 0.152358 17.4698 8.35772 8.73318 1.43913 -10.0093
lowerback 0.507042 1.81751 4.05641
upperback -7.99959 2.80137 1.81182
thorax -8.60087 1.17169 -0.572715
lowerneck -13.7782 -6.46612 -4.33666
upperneck 26.206 -10.5076 8.18867
head 11.497 -4.23382 2.23041
rclavicle -4.87022e-015 -4.21423e-014
rhumerus -20.5099 46.7894 -98.8818
rradius 101.761
rwrist -21.0175
rhand -15.2254 -64.0699
rfingers 7.12502
rthumb 10.9473 93.7645
lclavicle -4.87022e-015 -4.21423e-014
lhumerus -13.7993 -60.0177 88.1899
lradius 98.1861
lwrist 47.1226
lhand -41.6895 -2.6788
lfingers 7.12502
lthumb -14.596 26.7876
rfemur -3.93436 24.5015 24.3453
rtibia 3.41625
rfoot -13.4226 -27.5098
rtoes 0.612231
lfemur 3.5813 -42.8514 -8.68393
ltibia -4.30996
lfoot -21.1088 51.9512
ltoes 12.0855
